<?xml version="1.0" standalone="no"?>
<!DOCTYPE svg PUBLIC "-//W3C//DTD SVG 20010904//EN"
 "http://www.w3.org/TR/2001/REC-SVG-20010904/DTD/svg10.dtd">
<svg version="1.0" xmlns="http://www.w3.org/2000/svg"
 width="715.000000pt" height="122.000000pt" viewBox="0 0 715.000000 122.000000"
 preserveAspectRatio="xMidYMid meet">

<g transform="translate(0.000000,122.000000) scale(0.100000,-0.100000)"
fill="#000000" stroke="none">
<path d="M705 1030 c-3 -6 1 -7 9 -4 18 7 21 14 7 14 -6 0 -13 -4 -16 -10z"/>
<path d="M803 985 c0 -7 7 -11 15 -7 11 4 13 1 7 -8 -5 -9 -4 -11 3 -6 16 10
15 14 -6 25 -14 7 -19 6 -19 -4z"/>
<path d="M853 956 c0 -8 7 -12 15 -8 10 3 13 1 8 -6 -3 -6 -2 -13 3 -16 5 -4
8 1 7 10 -3 21 -33 39 -33 20z"/>
<path d="M631 924 c0 -11 3 -14 6 -6 3 7 2 16 -1 19 -3 4 -6 -2 -5 -13z"/>
<path d="M651 924 c0 -11 3 -14 6 -6 3 7 2 16 -1 19 -3 4 -6 -2 -5 -13z"/>
<path d="M904 926 c1 -8 5 -18 8 -22 4 -3 5 1 4 10 -1 8 -5 18 -8 22 -4 3 -5
-1 -4 -10z"/>
<path d="M429 903 c-13 -16 -12 -17 4 -4 9 7 17 15 17 17 0 8 -8 3 -21 -13z"/>
<path d="M576 905 c4 -8 8 -15 10 -15 2 0 4 7 4 15 0 8 -4 15 -10 15 -5 0 -7
-7 -4 -15z"/>
<path d="M776 903 c-6 -14 -5 -15 5 -6 7 7 10 15 7 18 -3 3 -9 -2 -12 -12z"/>
<path d="M800 905 c0 -5 5 -17 10 -25 5 -8 10 -10 10 -5 0 6 -5 17 -10 25 -5
8 -10 11 -10 5z"/>
<path d="M944 896 c1 -8 5 -18 8 -22 4 -3 5 1 4 10 -1 8 -5 18 -8 22 -4 3 -5
-1 -4 -10z"/>
<path d="M379 885 c-1 -3 -2 -8 -3 -12 -1 -5 -5 -15 -10 -23 -7 -12 -6 -13 4
-3 13 12 23 43 14 43 -2 0 -5 -2 -5 -5z"/>
<path d="M851 864 c0 -11 3 -14 6 -6 3 7 2 16 -1 19 -3 4 -6 -2 -5 -13z"/>
<path d="M976 872 c-3 -5 9 -22 26 -38 18 -16 27 -22 20 -13 -6 9 -10 18 -7
21 3 3 -3 13 -14 22 -10 10 -22 13 -25 8z m25 -19 c13 -16 12 -17 -3 -4 -10 7
-18 15 -18 17 0 8 8 3 21 -13z"/>
<path d="M653 854 c-4 -12 -14 -14 -39 -9 -30 5 -35 3 -44 -21 -8 -19 -15 -25
-30 -21 -22 6 -36 -9 -32 -36 2 -11 -6 -21 -23 -27 -23 -9 -25 -14 -20 -44 5
-25 3 -35 -9 -39 -21 -8 -21 -36 0 -44 12 -4 14 -14 9 -40 -5 -29 -3 -35 14
-40 20 -5 26 -15 22 -37 -3 -16 20 -34 39 -29 13 4 22 -1 27 -13 9 -27 23 -33
55 -27 17 3 28 1 28 -6 0 -6 11 -11 25 -11 14 0 25 5 25 11 0 7 12 9 36 5 31
-6 36 -4 41 13 3 12 10 22 17 23 6 0 16 2 21 2 19 3 35 17 35 33 0 9 12 27 27
41 18 16 23 27 15 30 -17 5 -15 27 3 42 20 17 19 40 -2 56 -15 10 -16 16 -6
32 12 21 8 31 -22 49 -11 6 -19 17 -17 23 3 15 -18 41 -28 35 -14 -9 -38 6
-43 26 -5 17 -11 19 -40 14 -26 -5 -36 -3 -40 9 -4 9 -13 16 -22 16 -9 0 -18
-7 -22 -16z m105 -58 c140 -73 135 -264 -8 -325 -83 -36 -167 -13 -220 61 -29
40 -31 48 -28 108 4 76 29 119 86 150 44 23 131 26 170 6z"/>
<path d="M643 756 c-15 -12 -34 -21 -40 -19 -20 7 -15 -12 9 -33 18 -16 20
-16 15 -3 -3 11 5 26 22 43 l27 26 27 -28 c15 -16 24 -31 20 -35 -3 -4 -2 -7
3 -7 12 0 34 21 34 32 0 4 -6 5 -13 2 -7 -2 -24 7 -37 21 -29 31 -32 31 -67 1z"/>
<path d="M665 686 c-4 -20 -4 -57 0 -84 l8 -47 12 35 c8 23 9 49 3 79 -10 58
-15 61 -23 17z"/>
<path d="M553 671 l-32 -38 29 -28 c18 -17 26 -33 23 -44 -5 -13 -3 -13 15 3
19 17 22 43 3 31 -5 -2 -19 7 -32 21 l-24 26 23 18 c12 10 28 20 35 23 8 3 9
8 2 15 -7 8 -20 -1 -42 -27z"/>
<path d="M755 700 c-3 -5 9 -23 27 -39 33 -29 33 -29 14 -50 -11 -12 -26 -19
-33 -17 -16 7 -17 -6 -1 -22 15 -15 32 -16 23 -2 -3 5 6 21 22 34 l28 24 -27
29 c-16 16 -28 34 -28 41 0 14 -16 16 -25 2z"/>
<path d="M599 554 c-9 -11 -8 -14 3 -14 8 0 25 -11 38 -25 29 -31 35 -31 71
-1 15 13 34 26 40 28 7 2 9 10 5 17 -6 9 -18 2 -44 -25 l-36 -37 -32 36 c-28
30 -35 33 -45 21z"/>
<path d="M468 853 c6 -2 18 -2 25 0 6 3 1 5 -13 5 -14 0 -19 -2 -12 -5z"/>
<path d="M897 833 c-12 -11 -8 -22 11 -32 14 -7 19 -6 19 4 0 7 -6 11 -14 8
-9 -4 -11 0 -7 11 6 17 2 21 -9 9z"/>
<path d="M420 809 c0 -4 7 -10 16 -13 8 -3 13 -2 9 3 -3 5 1 11 7 14 7 3 3 4
-9 4 -13 -1 -23 -4 -23 -8z"/>
<path d="M274 768 l-29 -33 33 29 c30 28 37 36 29 36 -2 0 -16 -15 -33 -32z"/>
<path d="M930 780 c-9 -6 -10 -10 -3 -10 6 0 15 5 18 10 8 12 4 12 -15 0z"/>
<path d="M398 763 c7 -3 16 -2 19 1 4 3 -2 6 -13 5 -11 0 -14 -3 -6 -6z"/>
<path d="M1090 745 c13 -14 26 -25 28 -25 3 0 -5 11 -18 25 -13 14 -26 25 -28
25 -3 0 5 -11 18 -25z"/>
<path d="M940 734 c0 -8 5 -12 10 -9 6 3 10 10 10 16 0 5 -4 9 -10 9 -5 0 -10
-7 -10 -16z"/>
<path d="M385 730 c-3 -6 1 -7 9 -4 18 7 21 14 7 14 -6 0 -13 -4 -16 -10z"/>
<path d="M232 700 c0 -14 2 -19 5 -12 2 6 2 18 0 25 -3 6 -5 1 -5 -13z"/>
<path d="M1132 680 c0 -19 2 -27 5 -17 2 9 2 25 0 35 -3 9 -5 1 -5 -18z"/>
<path d="M1122 605 c0 -16 2 -22 5 -12 2 9 2 23 0 30 -3 6 -5 -1 -5 -18z"/>
<path d="M251 564 c0 -11 3 -14 6 -6 3 7 2 16 -1 19 -3 4 -6 -2 -5 -13z"/>
<path d="M337 550 c-13 -15 -13 -19 -2 -24 7 -2 16 2 19 10 4 10 13 13 26 9
13 -4 20 -2 20 7 0 20 -45 18 -63 -2z"/>
<path d="M1091 554 c0 -11 3 -14 6 -6 3 7 2 16 -1 19 -3 4 -6 -2 -5 -13z"/>
<path d="M1111 553 c0 -12 -4 -30 -7 -40 -5 -17 -5 -17 6 0 6 10 9 28 7 40 -4
22 -4 22 -6 0z"/>
<path d="M376 495 c-3 -11 -6 -22 -6 -25 -1 -2 4 -6 12 -9 7 -2 10 0 6 4 -11
12 11 35 28 28 9 -3 12 0 9 9 -8 21 -43 17 -49 -7z"/>
<path d="M266 475 c-9 -26 -7 -32 5 -12 6 10 9 21 6 23 -2 3 -7 -2 -11 -11z"/>
<path d="M450 469 c0 -6 -7 -9 -15 -5 -10 3 -15 -1 -15 -13 0 -11 -5 -21 -12
-23 -7 -3 -6 -7 5 -11 12 -5 17 -1 17 13 0 11 7 20 15 20 8 0 15 7 15 15 0 8
-2 15 -5 15 -3 0 -5 -5 -5 -11z"/>
<path d="M486 431 c-22 -8 -29 -48 -10 -55 8 -3 11 0 7 10 -3 8 3 21 13 29 23
16 17 25 -10 16z"/>
<path d="M539 397 c-18 -14 -20 -57 -2 -57 7 0 10 7 7 15 -4 8 -1 22 6 30 16
20 10 27 -11 12z"/>
<path d="M587 365 c-12 -8 -14 -15 -7 -20 5 -3 8 -10 6 -14 -3 -4 13 -7 35 -6
34 0 37 2 22 13 -10 7 -23 19 -28 26 -9 11 -14 12 -28 1z"/>
<path d="M336 317 c3 -10 9 -15 12 -12 3 3 0 11 -7 18 -10 9 -11 8 -5 -6z"/>
<path d="M420 320 c0 -20 49 -35 150 -45 94 -9 255 -3 268 10 13 12 -9 14 -73
3 -79 -12 -260 5 -307 28 -32 17 -38 17 -38 4z"/>
<path d="M718 313 c6 -2 18 -2 25 0 6 3 1 5 -13 5 -14 0 -19 -2 -12 -5z"/>
<path d="M880 303 c-20 -9 -29 -18 -22 -20 16 -6 72 16 72 28 0 12 -8 10 -50
-8z"/>
<path d="M380 231 c5 -11 15 -23 21 -27 6 -3 3 5 -6 20 -20 30 -30 35 -15 7z"/>
<path d="M918 193 c7 -3 16 -2 19 1 4 3 -2 6 -13 5 -11 0 -14 -3 -6 -6z"/>
<path d="M868 183 c7 -3 16 -2 19 1 4 3 -2 6 -13 5 -11 0 -14 -3 -6 -6z"/>
<path d="M528 173 c6 -2 18 -2 25 0 6 3 1 5 -13 5 -14 0 -19 -2 -12 -5z"/>
<path d="M778 173 c7 -3 16 -2 19 1 4 3 -2 6 -13 5 -11 0 -14 -3 -6 -6z"/>
<path d="M858 163 c7 -3 16 -2 19 1 4 3 -2 6 -13 5 -11 0 -14 -3 -6 -6z"/>
</g>
</svg>
